<svg width="1859" height="1087" viewBox="0 0 1859 1087" fill="none" xmlns="http://www.w3.org/2000/svg">
<path d="M298.73 63.988H72.6839C65.6963 63.988 58.9614 66.6015 53.8029 71.3148L9.11035 112.15C3.3063 117.453 0 124.953 0 132.814V953.217C0 961.078 3.3063 968.578 9.11035 973.881L53.8029 1014.72C58.9614 1019.43 65.6963 1022.04 72.6839 1022.04H298.73C305.717 1022.04 312.452 1024.66 317.611 1029.37L371.605 1078.7C376.764 1083.42 383.499 1086.03 390.486 1086.03H1461.71C1470.68 1086.03 1479.11 1081.73 1484.38 1074.46L1513.98 1033.61C1519.24 1026.34 1527.67 1022.04 1536.65 1022.04H1786.32C1793.3 1022.04 1800.04 1019.43 1805.2 1014.72L1849.89 973.881C1855.69 968.578 1859 961.078 1859 953.217V132.814C1859 124.953 1855.69 117.453 1849.89 112.15L1805.2 71.3148C1800.04 66.6015 1793.3 63.988 1786.32 63.988H1534.44C1526.73 63.988 1519.36 60.8111 1514.08 55.206L1470.27 8.78198C1464.99 3.17692 1457.62 0 1449.91 0H390.486C383.499 0 376.764 2.61349 371.605 7.32681L317.611 56.6612C312.452 61.3745 305.717 63.988 298.73 63.988Z" fill="black"/>
</svg>
