<svg width="123" height="42" viewBox="0 0 123 42" fill="none" xmlns="http://www.w3.org/2000/svg">
<path d="M10.445 1.46277L1.67304 8.9733C1.24588 9.33903 1 9.87325 1 10.4356V32.4244C1 33.0184 1.27421 33.5791 1.74305 33.9438L10.464 40.7281C10.802 40.9909 11.2179 41.1337 11.646 41.1337H112.758C113.239 41.1337 113.702 40.9537 114.057 40.6292L121.374 33.9382C121.773 33.5735 122 33.058 122 32.5176V10.3433C122 9.8349 121.799 9.34714 121.441 8.98649L114.07 1.56824C113.709 1.20453 113.217 1 112.704 1H11.697C11.2378 1 10.7937 1.16413 10.445 1.46277Z" fill="#0E0E0E" stroke="white" stroke-opacity="0.3" stroke-width="0.385011" stroke-linecap="round"/>
</svg>
