<svg width="204" height="69" viewBox="0 0 204 69" fill="none" xmlns="http://www.w3.org/2000/svg">
<path d="M16.7676 1.77255L2.12358 14.3108C1.41048 14.9214 1 15.8132 1 16.752V53.4605C1 54.4521 1.45778 55.3882 2.24046 55.9971L16.7995 67.3229C17.3636 67.7617 18.058 68 18.7727 68H187.571C188.374 68 189.148 67.6996 189.74 67.1579L201.955 55.9877C202.621 55.3789 203 54.5183 203 53.6161V16.5979C203 15.7492 202.664 14.9349 202.066 14.3328L189.762 1.94863C189.158 1.34144 188.338 1 187.482 1H18.8577C18.0912 1 17.3499 1.274 16.7676 1.77255Z" fill="#0E0E0E" stroke="white" stroke-opacity="0.3" stroke-width="0.642746" stroke-linecap="round"/>
<path d="M71.2919 38.9893H77.3758V37.4523H73.021V35.1596H76.6073V33.6226H73.021V31.5604H77.2477V30.0235H71.2919V38.9893ZM87.7327 38.9893L85.043 34.3142L87.5406 30.0235H85.6834L84.0695 32.9822L82.4685 30.0235H80.5472L83.0449 34.3911L80.3551 38.9893H82.2379L84.0183 35.7744L85.7858 38.9893H87.7327ZM90.7633 38.9893H92.4924V35.6719H94.2215C95.9634 35.6719 97.1034 34.6216 97.1034 32.8413C97.1034 31.0609 95.9634 30.0235 94.2215 30.0235H90.7633V38.9893ZM92.4924 34.1349V31.5604H94.0294C94.9003 31.5604 95.3742 32.06 95.3742 32.8413C95.3742 33.6226 94.9003 34.1349 94.0294 34.1349H92.4924ZM100.403 38.9893H106.897V37.4523H102.132V30.0235H100.403V38.9893ZM109.799 34.5064C109.799 37.2986 110.965 39.1173 113.232 39.1173C115.499 39.1173 116.664 37.2986 116.664 34.5064C116.664 31.7141 115.499 29.8954 113.232 29.8954C110.965 29.8954 109.799 31.7141 109.799 34.5064ZM113.219 37.5803C112.053 37.5803 111.528 36.4916 111.528 34.5064C111.528 32.457 112.092 31.4324 113.219 31.4324H113.245C114.372 31.4324 114.935 32.457 114.935 34.5064C114.935 36.5557 114.372 37.5803 113.245 37.5803H113.219ZM126.074 35.9793C126.074 35.1724 125.625 34.7241 124.703 34.7241H124.677C125.702 34.3527 126.202 33.597 126.202 32.457C126.202 31.0609 124.972 30.0235 123.448 30.0235H119.913V38.9893H121.642V35.5951H123.512C124.152 35.5951 124.344 35.7744 124.344 36.4276V38.9893H126.074V35.9793ZM124.472 32.79C124.472 33.6226 123.947 34.0837 122.935 34.0837H121.642V31.5604H122.935C123.96 31.5604 124.472 31.9703 124.472 32.79ZM129.668 38.9893H135.752V37.4523H131.397V35.1596H134.983V33.6226H131.397V31.5604H135.623V30.0235H129.668V38.9893Z" fill="#D1D5AA"/>
<path d="M18.1526 5.73882L6.02843 16.3102C5.37502 16.8799 5 17.7044 5 18.5714V61C5 62.6569 6.34315 64 8 64H187.242C188.047 64 188.818 63.6768 189.382 63.1031L198.139 54.1944C198.691 53.6334 199 52.8781 199 52.0913V8C199 6.34315 197.657 5 196 5H20.1242C19.3994 5 18.699 5.26245 18.1526 5.73882Z" stroke="#D1D5AA"/>
<path d="M39 5L64 5" stroke="#0E0E0E"/>
<path d="M142 64H175" stroke="#0E0E0E"/>
<path d="M31 64H43" stroke="#0E0E0E"/>
</svg>
