<svg width="1920" height="1080" viewBox="0 0 1920 1080" fill="none" xmlns="http://www.w3.org/2000/svg">
<g clip-path="url(#clip0_395_1062)">
<mask id="mask0_395_1062" style="mask-type:alpha" maskUnits="userSpaceOnUse" x="-49" y="-7" width="1984" height="1094">
<rect x="-49" y="-7" width="1984" height="1093.66" fill="#D9D9D9"/>
</mask>
<g mask="url(#mask0_395_1062)">
<g opacity="0.3">
<path d="M-91.3906 62.3164H1976.87" stroke="#3A4D62" stroke-width="1.02692"/>
<path d="M-91.3906 149.091H1976.87" stroke="#3A4D62" stroke-width="1.02692"/>
<path d="M-91.3906 235.865H1976.87" stroke="#3A4D62" stroke-width="1.02692"/>
<path d="M-91.3906 322.64H1976.87" stroke="#3A4D62" stroke-width="1.02692"/>
<path d="M-91.3906 409.414H1976.87" stroke="#3A4D62" stroke-width="1.02692"/>
<path d="M-91.3906 496.188H1976.87" stroke="#3A4D62" stroke-width="1.02692"/>
<path d="M-91.3906 582.962H1976.87" stroke="#3A4D62" stroke-width="1.02692"/>
<path d="M-91.3906 669.736H1976.87" stroke="#3A4D62" stroke-width="1.02692"/>
<path d="M-91.3906 756.511H1976.87" stroke="#3A4D62" stroke-width="1.02692"/>
<path d="M-91.3906 843.285H1976.87" stroke="#3A4D62" stroke-width="1.02692"/>
<path d="M-91.3906 930.06H1976.87" stroke="#3A4D62" stroke-width="1.02692"/>
<path d="M-91.3906 1016.83H1976.87" stroke="#3A4D62" stroke-width="1.02692"/>
<path d="M1.13867 1566.75L1.13858 -487.597" stroke="#3A4D62" stroke-width="1.02692"/>
<path d="M88.502 1566.75L88.5019 -487.597" stroke="#3A4D62" stroke-width="1.02692"/>
<path d="M175.863 1566.75L175.863 -487.597" stroke="#3A4D62" stroke-width="1.02692"/>
<path d="M263.225 1566.75L263.225 -487.597" stroke="#3A4D62" stroke-width="1.02692"/>
<path d="M350.588 1566.75L350.588 -487.597" stroke="#3A4D62" stroke-width="1.02692"/>
<path d="M437.951 1566.75L437.951 -487.597" stroke="#3A4D62" stroke-width="1.02692"/>
<path d="M525.312 1566.75L525.312 -487.597" stroke="#3A4D62" stroke-width="1.02692"/>
<path d="M612.676 1566.75L612.676 -487.597" stroke="#3A4D62" stroke-width="1.02692"/>
<path d="M700.037 1566.75L700.037 -487.597" stroke="#3A4D62" stroke-width="1.02692"/>
<path d="M787.398 1566.75L787.398 -487.597" stroke="#3A4D62" stroke-width="1.02692"/>
<path d="M874.762 1566.75L874.762 -487.597" stroke="#3A4D62" stroke-width="1.02692"/>
<path d="M961.09 1566.75L961.09 -487.597" stroke="#3A4D62" stroke-width="1.02692"/>
<path d="M1048.45 1566.75L1048.45 -487.597" stroke="#3A4D62" stroke-width="1.02692"/>
<path d="M1135.81 1566.75L1135.81 -487.597" stroke="#3A4D62" stroke-width="1.02692"/>
<path d="M1223.18 1566.75L1223.18 -487.597" stroke="#3A4D62" stroke-width="1.02692"/>
<path d="M1310.54 1566.75L1310.54 -487.597" stroke="#3A4D62" stroke-width="1.02692"/>
<path d="M1397.9 1566.75L1397.9 -487.597" stroke="#3A4D62" stroke-width="1.02692"/>
<path d="M1485.26 1566.75L1485.26 -487.597" stroke="#3A4D62" stroke-width="1.02692"/>
<path d="M1572.62 1566.75L1572.62 -487.597" stroke="#3A4D62" stroke-width="1.02692"/>
<path d="M1659.99 1566.75L1659.99 -487.597" stroke="#3A4D62" stroke-width="1.02692"/>
<path d="M1747.35 1566.75L1747.35 -487.597" stroke="#3A4D62" stroke-width="1.02692"/>
<path d="M1834.71 1566.75L1834.71 -487.597" stroke="#3A4D62" stroke-width="1.02692"/>
</g>
<g opacity="0.5">
<circle cx="0.805569" cy="62.3163" r="2.56729" fill="#D7D2F7" fill-opacity="0.6"/>
<circle cx="88.0927" cy="62.3163" r="2.56729" fill="#D7D2F7" fill-opacity="0.6"/>
<circle cx="175.382" cy="62.3163" r="2.56729" fill="#D7D2F7" fill-opacity="0.6"/>
<circle cx="262.669" cy="62.3163" r="2.56729" fill="#D7D2F7" fill-opacity="0.6"/>
<circle cx="349.956" cy="62.3163" r="2.56729" fill="#D7D2F7" fill-opacity="0.6"/>
<circle cx="437.245" cy="62.3163" r="2.56729" fill="#D7D2F7" fill-opacity="0.6"/>
<circle cx="524.532" cy="62.3163" r="2.56729" fill="#D7D2F7" fill-opacity="0.6"/>
<circle cx="611.819" cy="62.3163" r="2.56729" fill="#D7D2F7" fill-opacity="0.6"/>
<circle cx="699.108" cy="62.3163" r="2.56729" fill="#D7D2F7" fill-opacity="0.6"/>
<circle cx="786.395" cy="62.3163" r="2.56729" fill="#D7D2F7" fill-opacity="0.6"/>
<circle cx="873.682" cy="62.3163" r="2.56729" fill="#D7D2F7" fill-opacity="0.6"/>
<circle cx="960.972" cy="62.3163" r="2.56729" fill="#D7D2F7" fill-opacity="0.6"/>
<circle cx="1048.26" cy="62.3163" r="2.56729" fill="#D7D2F7" fill-opacity="0.6"/>
<circle cx="1135.55" cy="62.3163" r="2.56729" fill="#D7D2F7" fill-opacity="0.6"/>
<circle cx="1222.83" cy="62.3163" r="2.56729" fill="#D7D2F7" fill-opacity="0.6"/>
<circle cx="1310.12" cy="62.3163" r="2.56729" fill="#D7D2F7" fill-opacity="0.6"/>
<circle cx="1397.41" cy="62.3163" r="2.56729" fill="#D7D2F7" fill-opacity="0.6"/>
<circle cx="1484.7" cy="62.3163" r="2.56729" fill="#D7D2F7" fill-opacity="0.6"/>
<circle cx="1571.99" cy="62.3163" r="2.56729" fill="#D7D2F7" fill-opacity="0.6"/>
<circle cx="1659.27" cy="62.3163" r="2.56729" fill="#D7D2F7" fill-opacity="0.6"/>
<circle cx="1746.56" cy="62.3163" r="2.56729" fill="#D7D2F7" fill-opacity="0.6"/>
<path d="M1836.42 62.3163C1836.42 63.7342 1835.27 64.8836 1833.85 64.8836C1832.43 64.8836 1831.28 63.7342 1831.28 62.3163C1831.28 60.8984 1832.43 59.749 1833.85 59.749C1835.27 59.749 1836.42 60.8984 1836.42 62.3163Z" fill="#D7D2F7" fill-opacity="0.6"/>
<path d="M1923.7 62.3163C1923.7 63.7342 1922.56 64.8836 1921.14 64.8836C1919.72 64.8836 1918.57 63.7342 1918.57 62.3163C1918.57 60.8984 1919.72 59.749 1921.14 59.749C1922.56 59.749 1923.7 60.8984 1923.7 62.3163Z" fill="#D7D2F7" fill-opacity="0.6"/>
<circle cx="0.805569" cy="149.091" r="2.56729" fill="#D7D2F7" fill-opacity="0.6"/>
<circle cx="88.0927" cy="149.091" r="2.56729" fill="#D7D2F7" fill-opacity="0.6"/>
<circle cx="175.382" cy="149.091" r="2.56729" fill="#D7D2F7" fill-opacity="0.6"/>
<circle cx="262.669" cy="149.091" r="2.56729" fill="#D7D2F7" fill-opacity="0.6"/>
<circle cx="349.956" cy="149.091" r="2.56729" fill="#D7D2F7" fill-opacity="0.6"/>
<circle cx="437.245" cy="149.091" r="2.56729" fill="#D7D2F7" fill-opacity="0.6"/>
<circle cx="524.532" cy="149.091" r="2.56729" fill="#D7D2F7" fill-opacity="0.6"/>
<circle cx="611.819" cy="149.091" r="2.56729" fill="#D7D2F7" fill-opacity="0.6"/>
<circle cx="699.108" cy="149.091" r="2.56729" fill="#D7D2F7" fill-opacity="0.6"/>
<circle cx="786.395" cy="149.091" r="2.56729" fill="#D7D2F7" fill-opacity="0.6"/>
<circle cx="873.682" cy="149.091" r="2.56729" fill="#D7D2F7" fill-opacity="0.6"/>
<circle cx="960.972" cy="149.091" r="2.56729" fill="#D7D2F7" fill-opacity="0.6"/>
<circle cx="1048.26" cy="149.091" r="2.56729" fill="#D7D2F7" fill-opacity="0.6"/>
<circle cx="1135.55" cy="149.091" r="2.56729" fill="#D7D2F7" fill-opacity="0.6"/>
<circle cx="1222.83" cy="149.091" r="2.56729" fill="#D7D2F7" fill-opacity="0.6"/>
<circle cx="1310.12" cy="149.091" r="2.56729" fill="#D7D2F7" fill-opacity="0.6"/>
<circle cx="1397.41" cy="149.091" r="2.56729" fill="#D7D2F7" fill-opacity="0.6"/>
<circle cx="1484.7" cy="149.091" r="2.56729" fill="#D7D2F7" fill-opacity="0.6"/>
<circle cx="1571.99" cy="149.091" r="2.56729" fill="#D7D2F7" fill-opacity="0.6"/>
<circle cx="1659.27" cy="149.091" r="2.56729" fill="#D7D2F7" fill-opacity="0.6"/>
<circle cx="1746.56" cy="149.091" r="2.56729" fill="#D7D2F7" fill-opacity="0.6"/>
<path d="M1836.42 149.091C1836.42 150.509 1835.27 151.658 1833.85 151.658C1832.43 151.658 1831.28 150.509 1831.28 149.091C1831.28 147.673 1832.43 146.523 1833.85 146.523C1835.27 146.523 1836.42 147.673 1836.42 149.091Z" fill="#D7D2F7" fill-opacity="0.6"/>
<path d="M1923.7 149.091C1923.7 150.509 1922.56 151.658 1921.14 151.658C1919.72 151.658 1918.57 150.509 1918.57 149.091C1918.57 147.673 1919.72 146.523 1921.14 146.523C1922.56 146.523 1923.7 147.673 1923.7 149.091Z" fill="#D7D2F7" fill-opacity="0.6"/>
<circle cx="0.805569" cy="235.865" r="2.56729" fill="#D7D2F7" fill-opacity="0.6"/>
<circle cx="88.0927" cy="235.865" r="2.56729" fill="#D7D2F7" fill-opacity="0.6"/>
<circle cx="175.382" cy="235.865" r="2.56729" fill="#D7D2F7" fill-opacity="0.6"/>
<circle cx="262.669" cy="235.865" r="2.56729" fill="#D7D2F7" fill-opacity="0.6"/>
<circle cx="349.956" cy="235.865" r="2.56729" fill="#D7D2F7" fill-opacity="0.6"/>
<circle cx="437.245" cy="235.865" r="2.56729" fill="#D7D2F7" fill-opacity="0.6"/>
<circle cx="524.532" cy="235.865" r="2.56729" fill="#D7D2F7" fill-opacity="0.6"/>
<circle cx="611.819" cy="235.865" r="2.56729" fill="#D7D2F7" fill-opacity="0.6"/>
<circle cx="699.108" cy="235.865" r="2.56729" fill="#D7D2F7" fill-opacity="0.6"/>
<circle cx="786.395" cy="235.865" r="2.56729" fill="#D7D2F7" fill-opacity="0.6"/>
<circle cx="873.682" cy="235.865" r="2.56729" fill="#D7D2F7" fill-opacity="0.6"/>
<circle cx="960.972" cy="235.865" r="2.56729" fill="#D7D2F7" fill-opacity="0.6"/>
<circle cx="1048.26" cy="235.865" r="2.56729" fill="#D7D2F7" fill-opacity="0.6"/>
<circle cx="1135.55" cy="235.865" r="2.56729" fill="#D7D2F7" fill-opacity="0.6"/>
<circle cx="1222.83" cy="235.865" r="2.56729" fill="#D7D2F7" fill-opacity="0.6"/>
<circle cx="1310.12" cy="235.865" r="2.56729" fill="#D7D2F7" fill-opacity="0.6"/>
<circle cx="1397.41" cy="235.865" r="2.56729" fill="#D7D2F7" fill-opacity="0.6"/>
<circle cx="1484.7" cy="235.865" r="2.56729" fill="#D7D2F7" fill-opacity="0.6"/>
<circle cx="1571.99" cy="235.865" r="2.56729" fill="#D7D2F7" fill-opacity="0.6"/>
<circle cx="1659.27" cy="235.865" r="2.56729" fill="#D7D2F7" fill-opacity="0.6"/>
<circle cx="1746.56" cy="235.865" r="2.56729" fill="#D7D2F7" fill-opacity="0.6"/>
<path d="M1836.42 235.865C1836.42 237.283 1835.27 238.432 1833.85 238.432C1832.43 238.432 1831.28 237.283 1831.28 235.865C1831.28 234.447 1832.43 233.298 1833.85 233.298C1835.27 233.298 1836.42 234.447 1836.42 235.865Z" fill="#D7D2F7" fill-opacity="0.6"/>
<path d="M1923.7 235.865C1923.7 237.283 1922.56 238.432 1921.14 238.432C1919.72 238.432 1918.57 237.283 1918.57 235.865C1918.57 234.447 1919.72 233.298 1921.14 233.298C1922.56 233.298 1923.7 234.447 1923.7 235.865Z" fill="#D7D2F7" fill-opacity="0.6"/>
<circle cx="0.805569" cy="322.64" r="2.56729" fill="#D7D2F7" fill-opacity="0.6"/>
<circle cx="88.0927" cy="322.64" r="2.56729" fill="#D7D2F7" fill-opacity="0.6"/>
<circle cx="175.382" cy="322.64" r="2.56729" fill="#D7D2F7" fill-opacity="0.6"/>
<circle cx="262.669" cy="322.64" r="2.56729" fill="#D7D2F7" fill-opacity="0.6"/>
<circle cx="349.956" cy="322.64" r="2.56729" fill="#D7D2F7" fill-opacity="0.6"/>
<circle cx="437.245" cy="322.64" r="2.56729" fill="#D7D2F7" fill-opacity="0.6"/>
<circle cx="524.532" cy="322.64" r="2.56729" fill="#D7D2F7" fill-opacity="0.6"/>
<circle cx="611.819" cy="322.64" r="2.56729" fill="#D7D2F7" fill-opacity="0.6"/>
<circle cx="699.108" cy="322.64" r="2.56729" fill="#D7D2F7" fill-opacity="0.6"/>
<circle cx="786.395" cy="322.64" r="2.56729" fill="#D7D2F7" fill-opacity="0.6"/>
<circle cx="873.682" cy="322.64" r="2.56729" fill="#D7D2F7" fill-opacity="0.6"/>
<circle cx="960.972" cy="322.64" r="2.56729" fill="#D7D2F7" fill-opacity="0.6"/>
<circle cx="1048.26" cy="322.64" r="2.56729" fill="#D7D2F7" fill-opacity="0.6"/>
<circle cx="1135.55" cy="322.64" r="2.56729" fill="#D7D2F7" fill-opacity="0.6"/>
<circle cx="1222.83" cy="322.64" r="2.56729" fill="#D7D2F7" fill-opacity="0.6"/>
<circle cx="1310.12" cy="322.64" r="2.56729" fill="#D7D2F7" fill-opacity="0.6"/>
<circle cx="1397.41" cy="322.64" r="2.56729" fill="#D7D2F7" fill-opacity="0.6"/>
<circle cx="1484.7" cy="322.64" r="2.56729" fill="#D7D2F7" fill-opacity="0.6"/>
<circle cx="1571.99" cy="322.64" r="2.56729" fill="#D7D2F7" fill-opacity="0.6"/>
<circle cx="1659.27" cy="322.64" r="2.56729" fill="#D7D2F7" fill-opacity="0.6"/>
<circle cx="1746.56" cy="322.64" r="2.56729" fill="#D7D2F7" fill-opacity="0.6"/>
<path d="M1836.42 322.64C1836.42 324.057 1835.27 325.207 1833.85 325.207C1832.43 325.207 1831.28 324.057 1831.28 322.64C1831.28 321.222 1832.43 320.072 1833.85 320.072C1835.27 320.072 1836.42 321.222 1836.42 322.64Z" fill="#D7D2F7" fill-opacity="0.6"/>
<path d="M1923.7 322.64C1923.7 324.057 1922.56 325.207 1921.14 325.207C1919.72 325.207 1918.57 324.057 1918.57 322.64C1918.57 321.222 1919.72 320.072 1921.14 320.072C1922.56 320.072 1923.7 321.222 1923.7 322.64Z" fill="#D7D2F7" fill-opacity="0.6"/>
<circle cx="0.805569" cy="409.414" r="2.56729" fill="#D7D2F7" fill-opacity="0.6"/>
<circle cx="88.0927" cy="409.414" r="2.56729" fill="#D7D2F7" fill-opacity="0.6"/>
<circle cx="175.382" cy="409.414" r="2.56729" fill="#D7D2F7" fill-opacity="0.6"/>
<circle cx="262.669" cy="409.414" r="2.56729" fill="#D7D2F7" fill-opacity="0.6"/>
<circle cx="349.956" cy="409.414" r="2.56729" fill="#D7D2F7" fill-opacity="0.6"/>
<circle cx="437.245" cy="409.414" r="2.56729" fill="#D7D2F7" fill-opacity="0.6"/>
<circle cx="524.532" cy="409.414" r="2.56729" fill="#D7D2F7" fill-opacity="0.6"/>
<circle cx="611.819" cy="409.414" r="2.56729" fill="#D7D2F7" fill-opacity="0.6"/>
<circle cx="699.108" cy="409.414" r="2.56729" fill="#D7D2F7" fill-opacity="0.6"/>
<circle cx="786.395" cy="409.414" r="2.56729" fill="#D7D2F7" fill-opacity="0.6"/>
<circle cx="873.682" cy="409.414" r="2.56729" fill="#D7D2F7" fill-opacity="0.6"/>
<circle cx="960.972" cy="409.414" r="2.56729" fill="#D7D2F7" fill-opacity="0.6"/>
<circle cx="1048.26" cy="409.414" r="2.56729" fill="#D7D2F7" fill-opacity="0.6"/>
<circle cx="1135.55" cy="409.414" r="2.56729" fill="#D7D2F7" fill-opacity="0.6"/>
<circle cx="1222.83" cy="409.414" r="2.56729" fill="#D7D2F7" fill-opacity="0.6"/>
<circle cx="1310.12" cy="409.414" r="2.56729" fill="#D7D2F7" fill-opacity="0.6"/>
<circle cx="1397.41" cy="409.414" r="2.56729" fill="#D7D2F7" fill-opacity="0.6"/>
<circle cx="1484.7" cy="409.414" r="2.56729" fill="#D7D2F7" fill-opacity="0.6"/>
<circle cx="1571.99" cy="409.414" r="2.56729" fill="#D7D2F7" fill-opacity="0.6"/>
<circle cx="1659.27" cy="409.414" r="2.56729" fill="#D7D2F7" fill-opacity="0.6"/>
<circle cx="1746.56" cy="409.414" r="2.56729" fill="#D7D2F7" fill-opacity="0.6"/>
<path d="M1836.42 409.414C1836.42 410.832 1835.27 411.981 1833.85 411.981C1832.43 411.981 1831.28 410.832 1831.28 409.414C1831.28 407.996 1832.43 406.847 1833.85 406.847C1835.27 406.847 1836.42 407.996 1836.42 409.414Z" fill="#D7D2F7" fill-opacity="0.6"/>
<path d="M1923.7 409.414C1923.7 410.832 1922.56 411.981 1921.14 411.981C1919.72 411.981 1918.57 410.832 1918.57 409.414C1918.57 407.996 1919.72 406.847 1921.14 406.847C1922.56 406.847 1923.7 407.996 1923.7 409.414Z" fill="#D7D2F7" fill-opacity="0.6"/>
<circle cx="0.805569" cy="496.188" r="2.56729" fill="#D7D2F7" fill-opacity="0.6"/>
<circle cx="88.0927" cy="496.188" r="2.56729" fill="#D7D2F7" fill-opacity="0.6"/>
<circle cx="175.382" cy="496.188" r="2.56729" fill="#D7D2F7" fill-opacity="0.6"/>
<circle cx="262.669" cy="496.188" r="2.56729" fill="#D7D2F7" fill-opacity="0.6"/>
<circle cx="349.956" cy="496.188" r="2.56729" fill="#D7D2F7" fill-opacity="0.6"/>
<circle cx="437.245" cy="496.188" r="2.56729" fill="#D7D2F7" fill-opacity="0.6"/>
<circle cx="524.532" cy="496.188" r="2.56729" fill="#D7D2F7" fill-opacity="0.6"/>
<circle cx="611.819" cy="496.188" r="2.56729" fill="#D7D2F7" fill-opacity="0.6"/>
<circle cx="699.108" cy="496.188" r="2.56729" fill="#D7D2F7" fill-opacity="0.6"/>
<circle cx="786.395" cy="496.188" r="2.56729" fill="#D7D2F7" fill-opacity="0.6"/>
<circle cx="873.682" cy="496.188" r="2.56729" fill="#D7D2F7" fill-opacity="0.6"/>
<circle cx="960.972" cy="496.188" r="2.56729" fill="#D7D2F7" fill-opacity="0.6"/>
<circle cx="1048.26" cy="496.188" r="2.56729" fill="#D7D2F7" fill-opacity="0.6"/>
<circle cx="1135.55" cy="496.188" r="2.56729" fill="#D7D2F7" fill-opacity="0.6"/>
<circle cx="1222.83" cy="496.188" r="2.56729" fill="#D7D2F7" fill-opacity="0.6"/>
<circle cx="1310.12" cy="496.188" r="2.56729" fill="#D7D2F7" fill-opacity="0.6"/>
<circle cx="1397.41" cy="496.188" r="2.56729" fill="#D7D2F7" fill-opacity="0.6"/>
<circle cx="1484.7" cy="496.188" r="2.56729" fill="#D7D2F7" fill-opacity="0.6"/>
<circle cx="1571.99" cy="496.188" r="2.56729" fill="#D7D2F7" fill-opacity="0.6"/>
<circle cx="1659.27" cy="496.188" r="2.56729" fill="#D7D2F7" fill-opacity="0.6"/>
<circle cx="1746.56" cy="496.188" r="2.56729" fill="#D7D2F7" fill-opacity="0.6"/>
<path d="M1836.42 496.188C1836.42 497.606 1835.27 498.756 1833.85 498.756C1832.43 498.756 1831.28 497.606 1831.28 496.188C1831.28 494.771 1832.43 493.621 1833.85 493.621C1835.27 493.621 1836.42 494.771 1836.42 496.188Z" fill="#D7D2F7" fill-opacity="0.6"/>
<path d="M1923.7 496.188C1923.7 497.606 1922.56 498.756 1921.14 498.756C1919.72 498.756 1918.57 497.606 1918.57 496.188C1918.57 494.771 1919.72 493.621 1921.14 493.621C1922.56 493.621 1923.7 494.771 1923.7 496.188Z" fill="#D7D2F7" fill-opacity="0.6"/>
<circle cx="0.805569" cy="582.962" r="2.56729" fill="#D7D2F7" fill-opacity="0.6"/>
<circle cx="88.0927" cy="582.962" r="2.56729" fill="#D7D2F7" fill-opacity="0.6"/>
<circle cx="175.382" cy="582.962" r="2.56729" fill="#D7D2F7" fill-opacity="0.6"/>
<circle cx="262.669" cy="582.962" r="2.56729" fill="#D7D2F7" fill-opacity="0.6"/>
<circle cx="349.956" cy="582.962" r="2.56729" fill="#D7D2F7" fill-opacity="0.6"/>
<circle cx="437.245" cy="582.962" r="2.56729" fill="#D7D2F7" fill-opacity="0.6"/>
<circle cx="524.532" cy="582.962" r="2.56729" fill="#D7D2F7" fill-opacity="0.6"/>
<circle cx="611.819" cy="582.962" r="2.56729" fill="#D7D2F7" fill-opacity="0.6"/>
<circle cx="699.108" cy="582.962" r="2.56729" fill="#D7D2F7" fill-opacity="0.6"/>
<circle cx="786.395" cy="582.962" r="2.56729" fill="#D7D2F7" fill-opacity="0.6"/>
<circle cx="873.682" cy="582.962" r="2.56729" fill="#D7D2F7" fill-opacity="0.6"/>
<circle cx="960.972" cy="582.962" r="2.56729" fill="#D7D2F7" fill-opacity="0.6"/>
<circle cx="1048.26" cy="582.962" r="2.56729" fill="#D7D2F7" fill-opacity="0.6"/>
<circle cx="1135.55" cy="582.962" r="2.56729" fill="#D7D2F7" fill-opacity="0.6"/>
<circle cx="1222.83" cy="582.962" r="2.56729" fill="#D7D2F7" fill-opacity="0.6"/>
<circle cx="1310.12" cy="582.962" r="2.56729" fill="#D7D2F7" fill-opacity="0.6"/>
<circle cx="1397.41" cy="582.962" r="2.56729" fill="#D7D2F7" fill-opacity="0.6"/>
<circle cx="1484.7" cy="582.962" r="2.56729" fill="#D7D2F7" fill-opacity="0.6"/>
<circle cx="1571.99" cy="582.962" r="2.56729" fill="#D7D2F7" fill-opacity="0.6"/>
<circle cx="1659.27" cy="582.962" r="2.56729" fill="#D7D2F7" fill-opacity="0.6"/>
<circle cx="1746.56" cy="582.962" r="2.56729" fill="#D7D2F7" fill-opacity="0.6"/>
<path d="M1836.42 582.962C1836.42 584.38 1835.27 585.529 1833.85 585.529C1832.43 585.529 1831.28 584.38 1831.28 582.962C1831.28 581.544 1832.43 580.395 1833.85 580.395C1835.27 580.395 1836.42 581.544 1836.42 582.962Z" fill="#D7D2F7" fill-opacity="0.6"/>
<path d="M1923.7 582.962C1923.7 584.38 1922.56 585.529 1921.14 585.529C1919.72 585.529 1918.57 584.38 1918.57 582.962C1918.57 581.544 1919.72 580.395 1921.14 580.395C1922.56 580.395 1923.7 581.544 1923.7 582.962Z" fill="#D7D2F7" fill-opacity="0.6"/>
<circle cx="0.805569" cy="669.736" r="2.56729" fill="#D7D2F7" fill-opacity="0.6"/>
<circle cx="88.0927" cy="669.736" r="2.56729" fill="#D7D2F7" fill-opacity="0.6"/>
<circle cx="175.382" cy="669.736" r="2.56729" fill="#D7D2F7" fill-opacity="0.6"/>
<circle cx="262.669" cy="669.736" r="2.56729" fill="#D7D2F7" fill-opacity="0.6"/>
<circle cx="349.956" cy="669.736" r="2.56729" fill="#D7D2F7" fill-opacity="0.6"/>
<circle cx="437.245" cy="669.736" r="2.56729" fill="#D7D2F7" fill-opacity="0.6"/>
<circle cx="524.532" cy="669.736" r="2.56729" fill="#D7D2F7" fill-opacity="0.6"/>
<circle cx="611.819" cy="669.736" r="2.56729" fill="#D7D2F7" fill-opacity="0.6"/>
<circle cx="699.108" cy="669.736" r="2.56729" fill="#D7D2F7" fill-opacity="0.6"/>
<circle cx="786.395" cy="669.736" r="2.56729" fill="#D7D2F7" fill-opacity="0.6"/>
<circle cx="873.682" cy="669.736" r="2.56729" fill="#D7D2F7" fill-opacity="0.6"/>
<circle cx="960.972" cy="669.736" r="2.56729" fill="#D7D2F7" fill-opacity="0.6"/>
<circle cx="1048.26" cy="669.736" r="2.56729" fill="#D7D2F7" fill-opacity="0.6"/>
<circle cx="1135.55" cy="669.736" r="2.56729" fill="#D7D2F7" fill-opacity="0.6"/>
<circle cx="1222.83" cy="669.736" r="2.56729" fill="#D7D2F7" fill-opacity="0.6"/>
<circle cx="1310.12" cy="669.736" r="2.56729" fill="#D7D2F7" fill-opacity="0.6"/>
<circle cx="1397.41" cy="669.736" r="2.56729" fill="#D7D2F7" fill-opacity="0.6"/>
<circle cx="1484.7" cy="669.736" r="2.56729" fill="#D7D2F7" fill-opacity="0.6"/>
<circle cx="1571.99" cy="669.736" r="2.56729" fill="#D7D2F7" fill-opacity="0.6"/>
<circle cx="1659.27" cy="669.736" r="2.56729" fill="#D7D2F7" fill-opacity="0.6"/>
<circle cx="1746.56" cy="669.736" r="2.56729" fill="#D7D2F7" fill-opacity="0.6"/>
<path d="M1836.42 669.736C1836.42 671.154 1835.27 672.304 1833.85 672.304C1832.43 672.304 1831.28 671.154 1831.28 669.736C1831.28 668.318 1832.43 667.169 1833.85 667.169C1835.27 667.169 1836.42 668.318 1836.42 669.736Z" fill="#D7D2F7" fill-opacity="0.6"/>
<path d="M1923.7 669.736C1923.7 671.154 1922.56 672.304 1921.14 672.304C1919.72 672.304 1918.57 671.154 1918.57 669.736C1918.57 668.318 1919.72 667.169 1921.14 667.169C1922.56 667.169 1923.7 668.318 1923.7 669.736Z" fill="#D7D2F7" fill-opacity="0.6"/>
<circle cx="0.805569" cy="756.511" r="2.56729" fill="#D7D2F7" fill-opacity="0.6"/>
<circle cx="88.0927" cy="756.511" r="2.56729" fill="#D7D2F7" fill-opacity="0.6"/>
<circle cx="175.382" cy="756.511" r="2.56729" fill="#D7D2F7" fill-opacity="0.6"/>
<circle cx="262.669" cy="756.511" r="2.56729" fill="#D7D2F7" fill-opacity="0.6"/>
<circle cx="349.956" cy="756.511" r="2.56729" fill="#D7D2F7" fill-opacity="0.6"/>
<circle cx="437.245" cy="756.511" r="2.56729" fill="#D7D2F7" fill-opacity="0.6"/>
<circle cx="524.532" cy="756.511" r="2.56729" fill="#D7D2F7" fill-opacity="0.6"/>
<circle cx="611.819" cy="756.511" r="2.56729" fill="#D7D2F7" fill-opacity="0.6"/>
<circle cx="699.108" cy="756.511" r="2.56729" fill="#D7D2F7" fill-opacity="0.6"/>
<circle cx="786.395" cy="756.511" r="2.56729" fill="#D7D2F7" fill-opacity="0.6"/>
<circle cx="873.682" cy="756.511" r="2.56729" fill="#D7D2F7" fill-opacity="0.6"/>
<circle cx="960.972" cy="756.511" r="2.56729" fill="#D7D2F7" fill-opacity="0.6"/>
<circle cx="1048.26" cy="756.511" r="2.56729" fill="#D7D2F7" fill-opacity="0.6"/>
<circle cx="1135.55" cy="756.511" r="2.56729" fill="#D7D2F7" fill-opacity="0.6"/>
<circle cx="1222.83" cy="756.511" r="2.56729" fill="#D7D2F7" fill-opacity="0.6"/>
<circle cx="1310.12" cy="756.511" r="2.56729" fill="#D7D2F7" fill-opacity="0.6"/>
<circle cx="1397.41" cy="756.511" r="2.56729" fill="#D7D2F7" fill-opacity="0.6"/>
<circle cx="1484.7" cy="756.511" r="2.56729" fill="#D7D2F7" fill-opacity="0.6"/>
<circle cx="1571.99" cy="756.511" r="2.56729" fill="#D7D2F7" fill-opacity="0.6"/>
<circle cx="1659.27" cy="756.511" r="2.56729" fill="#D7D2F7" fill-opacity="0.6"/>
<circle cx="1746.56" cy="756.511" r="2.56729" fill="#D7D2F7" fill-opacity="0.6"/>
<path d="M1836.42 756.511C1836.42 757.929 1835.27 759.078 1833.85 759.078C1832.43 759.078 1831.28 757.929 1831.28 756.511C1831.28 755.093 1832.43 753.943 1833.85 753.943C1835.27 753.943 1836.42 755.093 1836.42 756.511Z" fill="#D7D2F7" fill-opacity="0.6"/>
<path d="M1923.7 756.511C1923.7 757.929 1922.56 759.078 1921.14 759.078C1919.72 759.078 1918.57 757.929 1918.57 756.511C1918.57 755.093 1919.72 753.943 1921.14 753.943C1922.56 753.943 1923.7 755.093 1923.7 756.511Z" fill="#D7D2F7" fill-opacity="0.6"/>
<circle cx="0.805569" cy="843.285" r="2.56729" fill="#D7D2F7" fill-opacity="0.6"/>
<circle cx="88.0927" cy="843.285" r="2.56729" fill="#D7D2F7" fill-opacity="0.6"/>
<circle cx="175.382" cy="843.285" r="2.56729" fill="#D7D2F7" fill-opacity="0.6"/>
<circle cx="262.669" cy="843.285" r="2.56729" fill="#D7D2F7" fill-opacity="0.6"/>
<circle cx="349.956" cy="843.285" r="2.56729" fill="#D7D2F7" fill-opacity="0.6"/>
<circle cx="437.245" cy="843.285" r="2.56729" fill="#D7D2F7" fill-opacity="0.6"/>
<circle cx="524.532" cy="843.285" r="2.56729" fill="#D7D2F7" fill-opacity="0.6"/>
<circle cx="611.819" cy="843.285" r="2.56729" fill="#D7D2F7" fill-opacity="0.6"/>
<circle cx="699.108" cy="843.285" r="2.56729" fill="#D7D2F7" fill-opacity="0.6"/>
<circle cx="786.395" cy="843.285" r="2.56729" fill="#D7D2F7" fill-opacity="0.6"/>
<circle cx="873.682" cy="843.285" r="2.56729" fill="#D7D2F7" fill-opacity="0.6"/>
<circle cx="960.972" cy="843.285" r="2.56729" fill="#D7D2F7" fill-opacity="0.6"/>
<circle cx="1048.26" cy="843.285" r="2.56729" fill="#D7D2F7" fill-opacity="0.6"/>
<circle cx="1135.55" cy="843.285" r="2.56729" fill="#D7D2F7" fill-opacity="0.6"/>
<circle cx="1222.83" cy="843.285" r="2.56729" fill="#D7D2F7" fill-opacity="0.6"/>
<circle cx="1310.12" cy="843.285" r="2.56729" fill="#D7D2F7" fill-opacity="0.6"/>
<circle cx="1397.41" cy="843.285" r="2.56729" fill="#D7D2F7" fill-opacity="0.6"/>
<circle cx="1484.7" cy="843.285" r="2.56729" fill="#D7D2F7" fill-opacity="0.6"/>
<circle cx="1571.99" cy="843.285" r="2.56729" fill="#D7D2F7" fill-opacity="0.6"/>
<circle cx="1659.27" cy="843.285" r="2.56729" fill="#D7D2F7" fill-opacity="0.6"/>
<circle cx="1746.56" cy="843.285" r="2.56729" fill="#D7D2F7" fill-opacity="0.6"/>
<path d="M1836.42 843.285C1836.42 844.703 1835.27 845.852 1833.85 845.852C1832.43 845.852 1831.28 844.703 1831.28 843.285C1831.28 841.867 1832.43 840.718 1833.85 840.718C1835.27 840.718 1836.42 841.867 1836.42 843.285Z" fill="#D7D2F7" fill-opacity="0.6"/>
<path d="M1923.7 843.285C1923.7 844.703 1922.56 845.852 1921.14 845.852C1919.72 845.852 1918.57 844.703 1918.57 843.285C1918.57 841.867 1919.72 840.718 1921.14 840.718C1922.56 840.718 1923.7 841.867 1923.7 843.285Z" fill="#D7D2F7" fill-opacity="0.6"/>
<circle cx="0.805569" cy="930.059" r="2.56729" fill="#D7D2F7" fill-opacity="0.6"/>
<circle cx="88.0927" cy="930.059" r="2.56729" fill="#D7D2F7" fill-opacity="0.6"/>
<circle cx="175.382" cy="930.059" r="2.56729" fill="#D7D2F7" fill-opacity="0.6"/>
<circle cx="262.669" cy="930.059" r="2.56729" fill="#D7D2F7" fill-opacity="0.6"/>
<circle cx="349.956" cy="930.059" r="2.56729" fill="#D7D2F7" fill-opacity="0.6"/>
<circle cx="437.245" cy="930.059" r="2.56729" fill="#D7D2F7" fill-opacity="0.6"/>
<circle cx="524.532" cy="930.059" r="2.56729" fill="#D7D2F7" fill-opacity="0.6"/>
<circle cx="611.819" cy="930.059" r="2.56729" fill="#D7D2F7" fill-opacity="0.6"/>
<circle cx="699.108" cy="930.059" r="2.56729" fill="#D7D2F7" fill-opacity="0.6"/>
<circle cx="786.395" cy="930.059" r="2.56729" fill="#D7D2F7" fill-opacity="0.6"/>
<circle cx="873.682" cy="930.059" r="2.56729" fill="#D7D2F7" fill-opacity="0.6"/>
<circle cx="960.972" cy="930.059" r="2.56729" fill="#D7D2F7" fill-opacity="0.6"/>
<circle cx="1048.26" cy="930.059" r="2.56729" fill="#D7D2F7" fill-opacity="0.6"/>
<circle cx="1135.55" cy="930.059" r="2.56729" fill="#D7D2F7" fill-opacity="0.6"/>
<circle cx="1222.83" cy="930.059" r="2.56729" fill="#D7D2F7" fill-opacity="0.6"/>
<circle cx="1310.12" cy="930.059" r="2.56729" fill="#D7D2F7" fill-opacity="0.6"/>
<circle cx="1397.41" cy="930.059" r="2.56729" fill="#D7D2F7" fill-opacity="0.6"/>
<circle cx="1484.7" cy="930.059" r="2.56729" fill="#D7D2F7" fill-opacity="0.6"/>
<circle cx="1571.99" cy="930.059" r="2.56729" fill="#D7D2F7" fill-opacity="0.6"/>
<circle cx="1659.27" cy="930.059" r="2.56729" fill="#D7D2F7" fill-opacity="0.6"/>
<circle cx="1746.56" cy="930.059" r="2.56729" fill="#D7D2F7" fill-opacity="0.6"/>
<path d="M1836.42 930.059C1836.42 931.477 1835.27 932.627 1833.85 932.627C1832.43 932.627 1831.28 931.477 1831.28 930.059C1831.28 928.642 1832.43 927.492 1833.85 927.492C1835.27 927.492 1836.42 928.642 1836.42 930.059Z" fill="#D7D2F7" fill-opacity="0.6"/>
<path d="M1923.7 930.059C1923.7 931.477 1922.56 932.627 1921.14 932.627C1919.72 932.627 1918.57 931.477 1918.57 930.059C1918.57 928.642 1919.72 927.492 1921.14 927.492C1922.56 927.492 1923.7 928.642 1923.7 930.059Z" fill="#D7D2F7" fill-opacity="0.6"/>
<circle cx="0.805569" cy="1016.83" r="2.56729" fill="#D7D2F7" fill-opacity="0.6"/>
<circle cx="88.0927" cy="1016.83" r="2.56729" fill="#D7D2F7" fill-opacity="0.6"/>
<circle cx="175.382" cy="1016.83" r="2.56729" fill="#D7D2F7" fill-opacity="0.6"/>
<circle cx="262.669" cy="1016.83" r="2.56729" fill="#D7D2F7" fill-opacity="0.6"/>
<circle cx="349.956" cy="1016.83" r="2.56729" fill="#D7D2F7" fill-opacity="0.6"/>
<circle cx="437.245" cy="1016.83" r="2.56729" fill="#D7D2F7" fill-opacity="0.6"/>
<circle cx="524.532" cy="1016.83" r="2.56729" fill="#D7D2F7" fill-opacity="0.6"/>
<circle cx="611.819" cy="1016.83" r="2.56729" fill="#D7D2F7" fill-opacity="0.6"/>
<circle cx="699.108" cy="1016.83" r="2.56729" fill="#D7D2F7" fill-opacity="0.6"/>
<circle cx="786.395" cy="1016.83" r="2.56729" fill="#D7D2F7" fill-opacity="0.6"/>
<circle cx="873.682" cy="1016.83" r="2.56729" fill="#D7D2F7" fill-opacity="0.6"/>
<circle cx="960.972" cy="1016.83" r="2.56729" fill="#D7D2F7" fill-opacity="0.6"/>
<circle cx="1048.26" cy="1016.83" r="2.56729" fill="#D7D2F7" fill-opacity="0.6"/>
<circle cx="1135.55" cy="1016.83" r="2.56729" fill="#D7D2F7" fill-opacity="0.6"/>
<circle cx="1222.83" cy="1016.83" r="2.56729" fill="#D7D2F7" fill-opacity="0.6"/>
<circle cx="1310.12" cy="1016.83" r="2.56729" fill="#D7D2F7" fill-opacity="0.6"/>
<circle cx="1397.41" cy="1016.83" r="2.56729" fill="#D7D2F7" fill-opacity="0.6"/>
<circle cx="1484.7" cy="1016.83" r="2.56729" fill="#D7D2F7" fill-opacity="0.6"/>
<circle cx="1571.99" cy="1016.83" r="2.56729" fill="#D7D2F7" fill-opacity="0.6"/>
<circle cx="1659.27" cy="1016.83" r="2.56729" fill="#D7D2F7" fill-opacity="0.6"/>
<circle cx="1746.56" cy="1016.83" r="2.56729" fill="#D7D2F7" fill-opacity="0.6"/>
<path d="M1836.42 1016.83C1836.42 1018.25 1835.27 1019.4 1833.85 1019.4C1832.43 1019.4 1831.28 1018.25 1831.28 1016.83C1831.28 1015.42 1832.43 1014.27 1833.85 1014.27C1835.27 1014.27 1836.42 1015.42 1836.42 1016.83Z" fill="#D7D2F7" fill-opacity="0.6"/>
<path d="M1923.7 1016.83C1923.7 1018.25 1922.56 1019.4 1921.14 1019.4C1919.72 1019.4 1918.57 1018.25 1918.57 1016.83C1918.57 1015.42 1919.72 1014.27 1921.14 1014.27C1922.56 1014.27 1923.7 1015.42 1923.7 1016.83Z" fill="#D7D2F7" fill-opacity="0.6"/>
</g>
<path d="M264.209 131.634V167.282" stroke="#626262" stroke-opacity="0.6" stroke-width="2.64064"/>
<path d="M264.209 148.798H282.693" stroke="#626262" stroke-opacity="0.6" stroke-width="2.64064"/>
<path d="M264.209 478.731V514.38" stroke="#626262" stroke-opacity="0.6" stroke-width="2.64064"/>
<path d="M264.209 495.896H282.693" stroke="#626262" stroke-opacity="0.6" stroke-width="2.64064"/>
<path d="M264.209 825.828V861.477" stroke="#626262" stroke-opacity="0.6" stroke-width="2.64064"/>
<path d="M264.209 842.992H282.693" stroke="#626262" stroke-opacity="0.6" stroke-width="2.64064"/>
<path d="M699.621 131.634V167.282" stroke="#626262" stroke-opacity="0.6" stroke-width="2.64064"/>
<path d="M699.621 148.798H718.106" stroke="#626262" stroke-opacity="0.6" stroke-width="2.64064"/>
<path d="M699.621 478.731V514.38" stroke="#626262" stroke-opacity="0.6" stroke-width="2.64064"/>
<path d="M699.621 495.896H718.106" stroke="#626262" stroke-opacity="0.6" stroke-width="2.64064"/>
<path d="M699.621 825.828V861.477" stroke="#626262" stroke-opacity="0.6" stroke-width="2.64064"/>
<path d="M699.621 842.992H718.106" stroke="#626262" stroke-opacity="0.6" stroke-width="2.64064"/>
<path d="M1135.03 131.634V167.282" stroke="#626262" stroke-opacity="0.6" stroke-width="2.64064"/>
<path d="M1135.03 148.798H1153.52" stroke="#626262" stroke-opacity="0.6" stroke-width="2.64064"/>
<path d="M1135.03 478.731V514.38" stroke="#626262" stroke-opacity="0.6" stroke-width="2.64064"/>
<path d="M1135.03 495.896H1153.52" stroke="#626262" stroke-opacity="0.6" stroke-width="2.64064"/>
<path d="M1135.03 825.828V861.477" stroke="#626262" stroke-opacity="0.6" stroke-width="2.64064"/>
<path d="M1135.03 842.992H1153.52" stroke="#626262" stroke-opacity="0.6" stroke-width="2.64064"/>
<path d="M1570.45 131.634V167.282" stroke="#626262" stroke-opacity="0.6" stroke-width="2.64064"/>
<path d="M1570.45 148.798H1588.93" stroke="#626262" stroke-opacity="0.6" stroke-width="2.64064"/>
<path d="M1570.45 478.731V514.38" stroke="#626262" stroke-opacity="0.6" stroke-width="2.64064"/>
<path d="M1570.45 495.896H1588.93" stroke="#626262" stroke-opacity="0.6" stroke-width="2.64064"/>
<path d="M1570.45 825.828V861.477" stroke="#626262" stroke-opacity="0.6" stroke-width="2.64064"/>
<path d="M1570.45 842.992H1588.93" stroke="#626262" stroke-opacity="0.6" stroke-width="2.64064"/>
</g>
</g>
<defs>
<clipPath id="clip0_395_1062">
<rect width="1920" height="1080" fill="white"/>
</clipPath>
</defs>
</svg>
