<svg width="907" height="923" viewBox="0 0 907 923" fill="none" xmlns="http://www.w3.org/2000/svg">
<g filter="url(#filter0_b_537_367)">
<rect x="419.161" y="4.16211" width="68.6766" height="68.6766" fill="black" fill-opacity="0.2"/>
<rect x="419.437" y="4.43873" width="68.1233" height="68.1233" stroke="white" stroke-width="0.553247"/>
</g>
<path d="M446.718 24.7652H436.665V29.1008H439.467C440.811 29.1008 441.587 29.877 441.587 31.2402V52.5205H446.718V24.7652ZM453.618 52.9938C455.284 52.9938 456.685 51.6307 456.685 49.8889C456.685 48.2228 455.284 46.8596 453.618 46.8596C451.914 46.8596 450.513 48.2228 450.513 49.8889C450.513 51.6307 451.914 52.9938 453.618 52.9938ZM466.803 24.7652H456.75V29.1008H459.552C460.896 29.1008 461.673 29.877 461.673 31.2402V52.5205H466.803V24.7652Z" fill="#F1F6DD"/>
<path d="M492.001 4.16222L489.899 6.22241L487.839 8.32443L485.779 6.22241L483.677 4.16222L485.779 2.10202L487.839 -1.81936e-07L489.899 2.10202L492.001 4.16222Z" fill="white"/>
<path d="M423.324 4.16222L421.222 6.22241L419.162 8.32443L417.101 6.22241L414.999 4.16222L417.101 2.10202L419.162 -1.81936e-07L421.222 2.10202L423.324 4.16222Z" fill="white"/>
<path d="M423.324 72.84L421.222 74.9001L419.162 77.0022L417.101 74.9001L414.999 72.84L417.101 70.7798L419.162 68.6777L421.222 70.7798L423.324 72.84Z" fill="white"/>
<path d="M492.001 72.84L489.899 74.9001L487.839 77.0022L485.779 74.9001L483.677 72.84L485.779 70.7798L487.839 68.6777L489.899 70.7798L492.001 72.84Z" fill="white"/>
<g filter="url(#filter1_b_537_367)">
<rect x="826.594" y="413.595" width="75.8108" height="75.8108" fill="black" fill-opacity="0.2"/>
<rect x="826.899" y="413.9" width="75.2001" height="75.2001" stroke="white" stroke-width="0.610719"/>
</g>
<path d="M859.439 436.097L853.19 461.386C853.127 461.657 853.023 461.95 852.647 461.95C852.291 461.95 852.145 461.657 852.082 461.386L845.833 436.097H839.71L847.84 466.736H857.161L865.312 436.097H859.439ZM865.97 461.532V466.757H885.323V461.532H874.623C872.993 461.532 872.219 460.633 872.219 459.609C872.219 458.794 872.742 457.854 873.64 457.289L880.558 452.921C883.003 451.396 885.407 448.783 885.407 444.499C885.407 439.107 881.979 435.638 875.647 435.638C869.398 435.638 865.845 439.065 865.845 445.314V447.028H871.488V445.439C871.488 442.367 872.951 440.695 875.73 440.695C878.259 440.695 879.659 442.137 879.659 444.457C879.659 446.213 878.51 447.801 876.713 448.992L869.92 453.444C867.078 455.283 865.97 458.063 865.97 461.532Z" fill="#F1F6DD"/>
<path d="M907 413.595L904.68 415.869L902.406 418.189L900.132 415.869L897.811 413.595L900.132 411.32L902.406 409L904.68 411.32L907 413.595Z" fill="white"/>
<path d="M831.189 413.595L828.869 415.869L826.594 418.189L824.32 415.869L822 413.595L824.32 411.32L826.594 409L828.869 411.32L831.189 413.595Z" fill="white"/>
<path d="M831.189 489.406L828.869 491.68L826.594 494.001L824.32 491.68L822 489.406L824.32 487.132L826.594 484.812L828.869 487.132L831.189 489.406Z" fill="white"/>
<path d="M907 489.406L904.68 491.68L902.406 494.001L900.132 491.68L897.811 489.406L900.132 487.132L902.406 484.812L904.68 487.132L907 489.406Z" fill="white"/>
<g filter="url(#filter2_b_537_367)">
<rect x="416.594" y="842.595" width="75.8108" height="75.8108" fill="black" fill-opacity="0.2"/>
<rect x="416.899" y="842.9" width="75.2001" height="75.2001" stroke="white" stroke-width="0.610719"/>
</g>
<path d="M448.5 865.097L442.251 890.386C442.188 890.657 442.084 890.95 441.708 890.95C441.352 890.95 441.206 890.657 441.143 890.386L434.894 865.097H428.771L436.901 895.736H446.222L454.373 865.097H448.5ZM469.452 882.653V886.477C469.452 889.592 467.905 891.18 465.209 891.18C462.304 891.18 460.758 889.801 460.758 886.477V881.253H455.094V886.477C455.094 893.103 458.689 896.133 465.209 896.133C471.542 896.133 475.095 892.371 475.095 886.477V882.569C475.095 879.79 474.113 875.861 469.661 874.523C469.389 874.439 468.971 874.272 468.971 873.833C468.971 873.499 469.222 873.332 469.389 873.206L474.656 869.34V865.118H455.282V869.904H464.729C465.335 869.904 465.669 870.155 465.669 870.51C465.669 870.887 465.209 871.137 465.126 871.221L460.8 874.23V878.473H464.436C467.864 878.473 469.452 880.04 469.452 882.653Z" fill="#F1F6DD"/>
<path d="M497 842.595L494.68 844.869L492.406 847.189L490.132 844.869L487.811 842.595L490.132 840.32L492.406 838L494.68 840.32L497 842.595Z" fill="white"/>
<path d="M421.189 842.595L418.869 844.869L416.594 847.189L414.32 844.869L412 842.595L414.32 840.32L416.594 838L418.869 840.32L421.189 842.595Z" fill="white"/>
<path d="M421.189 918.406L418.869 920.68L416.594 923.001L414.32 920.68L412 918.406L414.32 916.132L416.594 913.812L418.869 916.132L421.189 918.406Z" fill="white"/>
<path d="M497 918.406L494.68 920.68L492.406 923.001L490.132 920.68L487.811 918.406L490.132 916.132L492.406 913.812L494.68 916.132L497 918.406Z" fill="white"/>
<g filter="url(#filter3_b_537_367)">
<rect x="4.59375" y="422.595" width="75.8108" height="75.8108" fill="black" fill-opacity="0.2"/>
<rect x="4.89911" y="422.9" width="75.2001" height="75.2001" stroke="white" stroke-width="0.610719"/>
</g>
<path d="M37.6478 445.097L31.3989 470.386C31.3362 470.657 31.2317 470.95 30.8555 470.95C30.5002 470.95 30.3539 470.657 30.2912 470.386L24.0423 445.097H17.9188L26.0486 475.736H35.3698L43.5206 445.097H37.6478ZM54.6499 472.371V475.757H60.2719V472.371C60.2719 471.681 60.6899 471.305 61.3795 471.305H64.0756V466.645H61.3795C60.6899 466.645 60.2719 466.248 60.2719 465.579V445.118H50.0729L42.2984 466.979V471.305H53.5422C54.1901 471.305 54.6499 471.681 54.6499 472.371ZM49.1743 463.907L53.5422 450.427C53.584 450.28 53.7094 449.904 54.1065 449.904C54.4827 449.904 54.6499 450.197 54.6499 450.719V464.283C54.6499 465.788 53.7512 466.645 52.3092 466.645H50.9716C48.3174 466.645 49.0071 464.408 49.1743 463.907Z" fill="#F1F6DD"/>
<path d="M85.0005 422.595L82.6801 424.869L80.4059 427.189L78.1317 424.869L75.8113 422.595L78.1317 420.32L80.4059 418L82.6801 420.32L85.0005 422.595Z" fill="white"/>
<path d="M9.18896 422.595L6.86858 424.869L4.59437 427.189L2.32016 424.869L-0.000224314 422.595L2.32016 420.32L4.59437 418L6.86858 420.32L9.18896 422.595Z" fill="white"/>
<path d="M9.18896 498.406L6.86858 500.68L4.59437 503.001L2.32016 500.68L-0.000224314 498.406L2.32016 496.132L4.59437 493.812L6.86858 496.132L9.18896 498.406Z" fill="white"/>
<path d="M85.0005 498.406L82.6801 500.68L80.4059 503.001L78.1317 500.68L75.8113 498.406L78.1317 496.132L80.4059 493.812L82.6801 496.132L85.0005 498.406Z" fill="white"/>
<defs>
<filter id="filter0_b_537_367" x="409.741" y="-5.25764" width="87.5163" height="87.5163" filterUnits="userSpaceOnUse" color-interpolation-filters="sRGB">
<feFlood flood-opacity="0" result="BackgroundImageFix"/>
<feGaussianBlur in="BackgroundImageFix" stdDeviation="4.70988"/>
<feComposite in2="SourceAlpha" operator="in" result="effect1_backgroundBlur_537_367"/>
<feBlend mode="normal" in="SourceGraphic" in2="effect1_backgroundBlur_537_367" result="shape"/>
</filter>
<filter id="filter1_b_537_367" x="816.195" y="403.196" width="96.6076" height="96.6071" filterUnits="userSpaceOnUse" color-interpolation-filters="sRGB">
<feFlood flood-opacity="0" result="BackgroundImageFix"/>
<feGaussianBlur in="BackgroundImageFix" stdDeviation="5.19915"/>
<feComposite in2="SourceAlpha" operator="in" result="effect1_backgroundBlur_537_367"/>
<feBlend mode="normal" in="SourceGraphic" in2="effect1_backgroundBlur_537_367" result="shape"/>
</filter>
<filter id="filter2_b_537_367" x="406.195" y="832.196" width="96.6076" height="96.6071" filterUnits="userSpaceOnUse" color-interpolation-filters="sRGB">
<feFlood flood-opacity="0" result="BackgroundImageFix"/>
<feGaussianBlur in="BackgroundImageFix" stdDeviation="5.19915"/>
<feComposite in2="SourceAlpha" operator="in" result="effect1_backgroundBlur_537_367"/>
<feBlend mode="normal" in="SourceGraphic" in2="effect1_backgroundBlur_537_367" result="shape"/>
</filter>
<filter id="filter3_b_537_367" x="-5.80454" y="412.196" width="96.6076" height="96.6071" filterUnits="userSpaceOnUse" color-interpolation-filters="sRGB">
<feFlood flood-opacity="0" result="BackgroundImageFix"/>
<feGaussianBlur in="BackgroundImageFix" stdDeviation="5.19915"/>
<feComposite in2="SourceAlpha" operator="in" result="effect1_backgroundBlur_537_367"/>
<feBlend mode="normal" in="SourceGraphic" in2="effect1_backgroundBlur_537_367" result="shape"/>
</filter>
</defs>
</svg>
